<?xml version="1.0" standalone="no"?>
<!DOCTYPE svg PUBLIC "-//W3C//DTD SVG 20010904//EN"
 "http://www.w3.org/TR/2001/REC-SVG-20010904/DTD/svg10.dtd">
<svg version="1.0" xmlns="http://www.w3.org/2000/svg"
 width="225.000000pt" height="225.000000pt" viewBox="0 0 225.000000 225.000000"
 preserveAspectRatio="xMidYMid meet">

<g transform="translate(0.000000,225.000000) scale(0.100000,-0.100000)"
fill="#000000" stroke="none">
<path d="M1171 1910 c-23 -38 -45 -70 -48 -70 -3 0 -12 8 -19 17 -7 10 -15 15
-19 11 -8 -8 22 -68 35 -68 12 0 110 149 110 168 0 26 -17 9 -59 -58z"/>
<path d="M1040 1835 l0 -85 35 0 35 0 0 -60 c0 -47 3 -60 15 -60 12 0 15 13
15 59 l0 60 33 3 32 3 3 70 c3 64 2 68 -12 50 -9 -11 -16 -39 -16 -63 l0 -43
-57 3 -58 3 -3 63 -3 62 45 0 c25 0 48 5 51 10 4 6 -17 10 -54 10 l-61 0 0
-85z"/>
<path d="M783 1757 c-49 -77 -50 -78 -65 -56 -23 36 -29 7 -6 -31 24 -40 20
-43 89 72 58 96 42 109 -18 15z"/>
<path d="M650 1685 l0 -85 88 0 c85 0 89 -1 117 -30 27 -28 55 -40 55 -22 0 4
-20 28 -45 52 -40 39 -45 49 -45 89 0 58 -18 43 -22 -19 l-3 -45 -62 -3 -63
-3 0 66 0 65 44 0 c25 0 48 5 51 10 4 6 -17 10 -54 10 l-61 0 0 -85z"/>
<path d="M1437 1764 c-4 -4 -7 -33 -7 -64 0 -52 -3 -59 -40 -95 -40 -39 -51
-65 -27 -65 7 0 26 13 42 30 26 27 34 29 114 32 l86 3 0 80 0 80 -80 3 c-45 1
-84 0 -88 -4z m143 -79 l0 -65 -60 0 -60 0 0 65 0 65 60 0 60 0 0 -65z"/>
<path d="M1048 1548 c-74 -20 -117 -95 -103 -179 4 -25 3 -39 -4 -39 -28 0 0
-105 35 -131 65 -48 54 -68 -72 -145 -97 -59 -134 -97 -134 -141 0 -15 9 -24
33 -32 130 -41 509 -41 648 0 35 11 38 15 33 38 -10 45 -39 75 -123 127 -45
28 -94 63 -109 78 l-27 27 27 24 c53 46 87 133 61 158 -3 4 -5 33 -4 65 3 76
-14 94 -58 61 -26 -19 -29 -25 -19 -43 7 -12 20 -48 29 -81 15 -49 19 -56 25
-37 8 27 24 29 24 2 0 -27 -31 -90 -45 -90 -6 0 -18 -13 -28 -29 -9 -16 -37
-39 -62 -51 -38 -18 -50 -20 -78 -11 -59 20 -157 136 -157 187 0 22 17 17 25
-8 6 -20 8 -18 15 16 10 53 32 68 90 60 59 -7 77 1 145 65 62 58 64 74 14 98
-35 16 -138 23 -181 11z m77 -448 c11 0 37 8 57 19 36 18 38 18 54 0 14 -16
15 -23 4 -48 -34 -83 -177 -90 -223 -11 -16 27 -16 31 -2 53 l16 25 36 -19
c21 -11 47 -19 58 -19z"/>
<path d="M644 1385 c-44 -72 -47 -75 -61 -55 -17 24 -38 17 -24 -8 33 -59 36
-59 73 -1 69 110 79 127 69 133 -5 4 -31 -28 -57 -69z"/>
<path d="M510 1315 l0 -85 85 0 85 0 0 35 0 34 62 3 c38 2 63 8 66 16 3 9 -14
12 -62 12 -53 0 -66 3 -66 16 0 8 -4 12 -10 9 -5 -3 -10 -28 -10 -56 l0 -49
-65 0 -65 0 0 65 0 65 50 0 c28 0 50 5 50 10 0 6 -27 10 -60 10 l-60 0 0 -85z"/>
<path d="M1568 1368 c-3 -33 -4 -33 -61 -36 -77 -4 -72 -26 6 -30 l57 -3 0
-34 0 -35 85 0 85 0 0 85 0 85 -84 0 -85 0 -3 -32z m152 -53 l0 -65 -65 0 -65
0 0 65 0 65 65 0 65 0 0 -65z"/>
</g>
</svg>
